<?xml version="1.0" encoding="UTF-8"?>
<svg width="35px" height="41px" viewBox="0 0 35 41" version="1.1" xmlns="http://www.w3.org/2000/svg" xmlns:xlink="http://www.w3.org/1999/xlink">
    <!-- Generator: Sketch 57.1 (83088) - https://sketch.com -->
    <title>axure</title>
    <desc>Created with Sketch.</desc>
    <g id="Portfolio" stroke="none" stroke-width="1" fill="none" fill-rule="evenodd">
        <g id="AboutMe-Copy" transform="translate(-507.000000, -1485.000000)" fill="#FFFFFF" fill-rule="nonzero">
            <g id="axure" transform="translate(507.000000, 1485.000000)">
                <g id="Group-17">
                    <path d="M32.9378715,1.51876504 L32.9378715,1.51876504 C32.6268441,0.854287997 31.9603566,0.457385605 31.1546476,0.457385605 L28.0428921,0.457385605 C27.1394314,0.457385605 26.4640575,0.823070954 26.1085975,1.48308842 L21.496505,8.26164612 L25.5339373,13.8153066 L32.5824116,3.64449694 C33.357018,2.69758001 33.088942,1.84282766 32.9378715,1.51876504" id="Fill-11"></path>
                    <path d="M8.62515286,1.40623503 L8.62070961,1.40028893 C7.91719517,0.457831562 6.98263178,0.457831562 6.6745665,0.457831562 L3.63094086,0.457831562 C2.85189118,0.457831562 2.21354439,0.817570809 1.87881963,1.4448847 C1.53668944,2.08706385 1.60926251,2.86005728 2.08320909,3.57507619 L13.3586943,19.2995462 L0.393293336,37.4901626 C-0.059918074,38.1739644 -0.123604645,38.9350657 0.22000662,39.5772448 C0.554731387,40.2045587 1.19307818,40.564298 1.97212785,40.564298 L5.08388332,40.564298 C5.88366816,40.564298 6.5871826,40.1465843 6.93819928,39.4880533 L21.4498509,19.3708995 L8.62515286,1.40623503 Z" id="Fill-13"></path>
                    <path d="M34.5184968,38.0347905 L26.6640157,27.1989191 L23.2081469,31.9867723 L29.4202223,40.3203713 L29.5822764,40.3913119 C29.8497943,40.5073967 30.1057369,40.5641494 30.365538,40.5641494 L33.0072778,40.5641494 C33.6452051,40.5641494 34.1879579,40.2778068 34.4940601,39.7812218 C34.8091654,39.2704487 34.8168823,38.634562 34.5184968,38.0347905" id="Fill-15"></path>
                </g>
            </g>
        </g>
    </g>
</svg>