<svg xmlns="http://www.w3.org/2000/svg" viewBox="0 0 548 129"><path d="M64.4 54.1h-16c-1 0-1.4.5-1.4 1.6v50.7c0 1.1.4 1.6 1.4 1.6h4.8c1.1 0 1.4-.5 1.4-1.6V88h9.8c13.6 0 18-5.7 18-12.2v-9.4c0-6.6-4.3-12.3-18-12.3zm10.3 20.3c0 4.3-3.2 6.9-10.3 6.9h-9.8V60.6h9.8c7.1 0 10.3 2.6 10.3 6.9v6.9zm45.6 26.9H100V55.6c0-1.1-.4-1.6-1.4-1.6h-4.8c-1.1 0-1.5.5-1.5 1.6v50.7c0 1 .4 1.6 1.3 1.6h26.8c1 0 1.5-.4 1.5-1.5v-3.6c-.1-1.1-.6-1.5-1.6-1.5zm31.8-45.7c-.3-1-.9-1.5-1.9-1.5h-9.5c-1 0-1.6.5-1.9 1.5l-13.1 50.8c-.3 1 .1 1.5 1.1 1.5H164c1.1 0 1.5-.6 1.2-1.5l-13.1-50.8zm50-1.5h-4.8c-.9 0-1.3.7-1.7 1.5L185 76.5c-.6 1-1.3 3.4-1.3 3.6-.1-.3-.8-2.5-1.3-3.6l-9.9-20.9c-.5-1-.8-1.5-1.8-1.5h-5.5c-1.1 0-1.6.6-1.1 1.5l15.7 31.8v19c0 1 .4 1.5 1.5 1.5h4.8c1 0 1.4-.5 1.4-1.5V86.5l15.5-31c.7-1 .2-1.4-.9-1.4zm24.5-.7c-13.6 0-17.5 5.7-17.5 12.2v30.7c0 6.5 3.9 12.2 17.5 12.2s17.5-5.7 17.5-12.2V82.4c0-1-.5-1.4-1.5-1.4h-15.4c-1 0-1.5.4-1.5 1.4V86c0 1.1.5 1.5 1.5 1.5h9.4v7.6c0 4.3-2.9 6.8-9.9 6.8-7.1 0-9.8-2.6-9.8-6.9V66.8c0-4.3 2.7-6.9 9.8-6.9s9.9 2.6 9.9 6.9V69c0 1 .4 1.5 1.5 1.5h4.6c1 0 1.4-.5 1.4-1.5v-3.5c0-6.4-3.9-12.1-17.5-12.1zm55 32.2c6.8-1.9 9.3-6.3 9.3-11.1v-8.2c0-6.5-4.4-12.2-18-12.2h-16.1c-1 0-1.4.5-1.4 1.6v50.7c0 1.1.4 1.6 1.4 1.6h4.8c1.1 0 1.4-.5 1.4-1.6V86.7h11.1l8.9 19.7c.5 1 .6 1.6 1.7 1.6h4.8c1.1 0 1.8-.6 1.4-1.6l-9.3-20.8zm-8.8-5.6H263V60.6h9.8c7.1 0 10.3 2.6 10.3 6.9v5.6c0 4.4-3.1 6.9-10.3 6.9zm46.7-26.6c-13.5 0-18 5.7-18 12.2v30.7c0 6.5 4.4 12.2 18 12.2s18.1-5.7 18.1-12.2V65.6c-.1-6.5-4.5-12.2-18.1-12.2zm10.3 41.7c0 4.3-3.2 6.9-10.3 6.9-7 0-10.2-2.6-10.2-6.9V66.9c0-4.3 3.2-6.9 10.2-6.9 7.1 0 10.3 2.6 10.3 6.9v28.2zm54-41H379c-1 0-1.4.5-1.4 1.6v39.4c0 4.3-3.2 6.9-10.4 6.9-7 0-10.2-2.6-10.2-6.9V55.7c0-1.1-.4-1.6-1.4-1.6h-4.8c-1 0-1.5.5-1.5 1.6v40.7c0 6.5 4.4 12.2 18 12.2s18.1-5.7 18.1-12.2V55.7c-.2-1.2-.5-1.6-1.6-1.6zm48.4 0h-4.4c-1 0-1.5.5-1.5 1.5v37.5s-1.3-3.2-2.5-5.1l-19.1-33.3c-.2-.4-.6-.6-1.3-.6H399c-1 0-1.4.5-1.4 1.5v50.8c0 1 .4 1.5 1.4 1.5h4.4c1 0 1.4-.5 1.4-1.5V68.9c.2.3 1.1 2.8 2.9 5.7l18.6 32.6c.3.5.6.7 1.4.7h4.4c1.1 0 1.4-.5 1.4-1.5V55.6c.2-1.1-.2-1.5-1.3-1.5zm32.4 0h-16.5c-1 0-1.4.5-1.4 1.6v50.7c0 1 .3 1.6 1.3 1.6h16.7c13.5 0 18.1-5.7 18.1-12.2V66.3c-.1-6.5-4.6-12.2-18.2-12.2zm10.3 40.4c0 4.3-3.2 6.9-10.3 6.9h-10.3V60.7h10.3c7.1 0 10.3 2.6 10.3 6.9v26.9zm-26.1-50.6h2.3c.5 0 .8-.3.9-.7l4.7-8.4 4.9 8.4c.2.3.5.7 1 .7h2.5c.5 0 .5-.3.3-.7l-6.6-11.3 6.3-10.8c.2-.4.1-.7-.3-.7h-2.3c-.4 0-.7.3-.9.7l-4.5 8-4.7-8c-.2-.4-.5-.7-1-.7H449c-.5 0-.5.3-.3.7l6.3 10.7-6.5 11.3c-.2.5-.1.8.3.8zm35-23.4h-2.1c-.4 0-.6.3-.8.7l-4.6 9.1c-.2.4-.6 1.5-.6 1.6 0-.1-.3-1.1-.6-1.6l-4.3-9.1c-.2-.4-.3-.7-.8-.7h-2.4c-.5 0-.7.2-.5.7l6.8 13.9v8.3c0 .4.2.7.7.7h2.1c.4 0 .6-.2.6-.7v-8.7l6.8-13.5c.4-.5.2-.7-.3-.7zm16.6 20.6h-9.9l9.9-17.9c.1-.1.1-.3.1-.6v-1.5c0-.5-.2-.7-.7-.7h-12.2c-.4 0-.7.2-.7.7v1.6c0 .5.2.7.7.7h8.7l-9.8 17.8c-.1.2-.2.3-.2.6v1.6c0 .5.2.7.7.7h13.3c.4 0 .7-.2.7-.7v-1.6c.1-.6-.1-.7-.6-.7z" fill="#fff"/></svg>